HIERARCHY
ROOT Hip
{
	OFFSET -0.153497 0.155994 0.179232
	CHANNELS 6 Xposition Yposition Zposition Xrotation Yrotation Zrotation
	JOINT LowerSpine
	{
		OFFSET 0.014996 0.125872 0.274047
		CHANNELS 6 Xposition Yposition Zposition Xrotation Yrotation Zrotation
		JOINT MiddleSpine
		{
			OFFSET -0.004209 -0.035327 0.234350
			CHANNELS 3 Xrotation Yrotation Zrotation
			JOINT Chest
			{
				OFFSET 0.003319 0.027861 0.297479
				CHANNELS 3 Xrotation Yrotation Zrotation
				JOINT Neck
				{
					OFFSET -0.006629 -0.055643 0.657954
					CHANNELS 6 Xposition Yposition Zposition Xrotation Yrotation Zrotation
					JOINT Head
					{
						OFFSET -0.016500 -0.138471 0.360337
						CHANNELS 3 Xrotation Yrotation Zrotation
						End Site
						{
							OFFSET -0.000843 -0.007081 0.053090
						}
					}
				}
				JOINT LClavicle
				{
					OFFSET 0.028650 -0.266607 0.613392
					CHANNELS 6 Xposition Yposition Zposition Xrotation Yrotation Zrotation
					JOINT LShoulder
					{
						OFFSET 0.364285 0.095197 0.106202
						CHANNELS 3 Xrotation Yrotation Zrotation
						JOINT LForearm
						{
							OFFSET 0.822243 -0.090477 -0.002174
							CHANNELS 3 Xrotation Yrotation Zrotation
							JOINT LHand
							{
								OFFSET 0.685654 -0.077758 0.002419
								CHANNELS 3 Xrotation Yrotation Zrotation
								JOINT LFinger1
								{
									OFFSET 0.256534 -0.107406 0.015575
									CHANNELS 6 Xposition Yposition Zposition Xrotation Yrotation Zrotation
									JOINT LFinger11
									{
										OFFSET 0.097558 -0.026736 -0.026087
										CHANNELS 3 Xrotation Yrotation Zrotation
										JOINT LFinger12
										{
											OFFSET 0.066600 -0.018256 -0.017813
											CHANNELS 3 Xrotation Yrotation Zrotation
											End Site
											{
												OFFSET 0.049581 -0.012569 -0.015911
											}
										}
									}
								}
								JOINT LFinger2
								{
									OFFSET 0.268431 -0.041275 0.026194
									CHANNELS 6 Xposition Yposition Zposition Xrotation Yrotation Zrotation
									JOINT LFinger21
									{
										OFFSET 0.122900 -0.013946 0.000418
										CHANNELS 3 Xrotation Yrotation Zrotation
										JOINT LFinger22
										{
											OFFSET 0.068126 -0.007721 0.000252
											CHANNELS 3 Xrotation Yrotation Zrotation
											End Site
											{
												OFFSET 0.053096 -0.006003 -0.003760
											}
										}
									}
								}
								JOINT LFinger3
								{
									OFFSET 0.262370 0.027822 0.024228
									CHANNELS 6 Xposition Yposition Zposition Xrotation Yrotation Zrotation
									JOINT LFinger31
									{
										OFFSET 0.112344 -0.005753 -0.004924
										CHANNELS 3 Xrotation Yrotation Zrotation
										JOINT LFinger32
										{
											OFFSET 0.064021 -0.003267 -0.002784
											CHANNELS 3 Xrotation Yrotation Zrotation
											End Site
											{
												OFFSET 0.053110 -0.003132 -0.006234
											}
										}
									}
								}
								JOINT LFinger4
								{
									OFFSET 0.249618 0.077427 -0.007164
									CHANNELS 6 Xposition Yposition Zposition Xrotation Yrotation Zrotation
									JOINT LFinger41
									{
										OFFSET 0.070968 0.012134 -0.012348
										CHANNELS 3 Xrotation Yrotation Zrotation
										JOINT LFinger42
										{
											OFFSET 0.052043 0.008905 -0.009038
											CHANNELS 3 Xrotation Yrotation Zrotation
											End Site
											{
												OFFSET 0.051610 0.006887 -0.012585
											}
										}
									}
								}
								JOINT LFinger0
								{
									OFFSET 0.050514 -0.043665 -0.045990
									CHANNELS 6 Xposition Yposition Zposition Xrotation Yrotation Zrotation
									JOINT LFinger01
									{
										OFFSET 0.093556 -0.085408 -0.041682
										CHANNELS 3 Xrotation Yrotation Zrotation
										JOINT LFinger02
										{
											OFFSET 0.061898 -0.053792 -0.029197
											CHANNELS 3 Xrotation Yrotation Zrotation
											End Site
											{
												OFFSET 0.038970 -0.032280 -0.017570
											}
										}
									}
								}
							}
						}
					}
				}
				JOINT RClavicle
				{
					OFFSET -0.090487 -0.252411 0.613392
					CHANNELS 6 Xposition Yposition Zposition Xrotation Yrotation Zrotation
					JOINT RShoulder
					{
						OFFSET -0.331780 0.178150 0.106221
						CHANNELS 3 Xrotation Yrotation Zrotation
						JOINT RForearm
						{
							OFFSET -0.820485 0.105238 -0.002175
							CHANNELS 3 Xrotation Yrotation Zrotation
							JOINT RHand
							{
								OFFSET -0.684729 0.085510 0.002418
								CHANNELS 3 Xrotation Yrotation Zrotation
								JOINT RFinger1
								{
									OFFSET -0.274588 -0.044128 0.015578
									CHANNELS 6 Xposition Yposition Zposition Xrotation Yrotation Zrotation
									JOINT RFinger11
									{
										OFFSET -0.101108 -0.003067 -0.026087
										CHANNELS 3 Xrotation Yrotation Zrotation
										JOINT RFinger12
										{
											OFFSET -0.069025 -0.002097 -0.017816
											CHANNELS 3 Xrotation Yrotation Zrotation
											End Site
											{
												OFFSET -0.051146 -0.000568 -0.015910
											}
										}
									}
								}
								JOINT RFinger2
								{
									OFFSET -0.270615 0.022947 0.026197
									CHANNELS 6 Xposition Yposition Zposition Xrotation Yrotation Zrotation
									JOINT RFinger21
									{
										OFFSET -0.122739 0.015319 0.000418
										CHANNELS 3 Xrotation Yrotation Zrotation
										JOINT RFinger22
										{
											OFFSET -0.068032 0.008504 0.000252
											CHANNELS 3 Xrotation Yrotation Zrotation
											End Site
											{
												OFFSET -0.053020 0.006640 -0.003760
											}
										}
									}
								}
								JOINT RFinger3
								{
									OFFSET -0.248489 0.088686 0.024228
									CHANNELS 6 Xposition Yposition Zposition Xrotation Yrotation Zrotation
									JOINT RFinger31
									{
										OFFSET -0.110551 0.020803 -0.004923
										CHANNELS 3 Xrotation Yrotation Zrotation
										JOINT RFinger32
										{
											OFFSET -0.062996 0.011865 -0.002784
											CHANNELS 3 Xrotation Yrotation Zrotation
											End Site
											{
												OFFSET -0.052359 0.009434 -0.006234
											}
										}
									}
								}
								JOINT RFinger4
								{
									OFFSET -0.224440 0.133906 -0.007164
									CHANNELS 6 Xposition Yposition Zposition Xrotation Yrotation Zrotation
									JOINT RFinger41
									{
										OFFSET -0.066131 0.028468 -0.012345
										CHANNELS 3 Xrotation Yrotation Zrotation
										JOINT RFinger42
										{
											OFFSET -0.048494 0.020882 -0.009036
											CHANNELS 3 Xrotation Yrotation Zrotation
											End Site
											{
												OFFSET -0.048547 0.018819 -0.012585
											}
										}
									}
								}
								JOINT RFinger0
								{
									OFFSET -0.059359 -0.030572 -0.045987
									CHANNELS 6 Xposition Yposition Zposition Xrotation Yrotation Zrotation
									JOINT RFinger01
									{
										OFFSET -0.111005 -0.061039 -0.041688
										CHANNELS 3 Xrotation Yrotation Zrotation
										JOINT RFinger02
										{
											OFFSET -0.072801 -0.037744 -0.029194
											CHANNELS 3 Xrotation Yrotation Zrotation
											End Site
											{
												OFFSET -0.045463 -0.022220 -0.017570
											}
										}
									}
								}
							}
						}
					}
				}
			}
		}
	}
	JOINT RThigh
	{
		OFFSET -0.303091 0.049093 0.119255
		CHANNELS 6 Xposition Yposition Zposition Xrotation Yrotation Zrotation
		JOINT RShin
		{
			OFFSET -0.007273 0.126688 -1.200749
			CHANNELS 3 Xrotation Yrotation Zrotation
			JOINT RFoot
			{
				OFFSET 0.014514 0.121820 -1.179065
				CHANNELS 3 Xrotation Yrotation Zrotation
				JOINT RToe
				{
					OFFSET -0.030464 -0.255696 -0.157786
					CHANNELS 3 Xrotation Yrotation Zrotation
					End Site
					{
						OFFSET -0.006303 -0.052905 -0.005544
					}
				}
			}
		}
	}
	JOINT LThigh
	{
		OFFSET 0.306136 -0.023489 0.119264
		CHANNELS 6 Xposition Yposition Zposition Xrotation Yrotation Zrotation
		JOINT LShin
		{
			OFFSET 0.036837 0.121433 -1.200757
			CHANNELS 3 Xrotation Yrotation Zrotation
			JOINT LFoot
			{
				OFFSET 0.014514 0.121820 -1.179065
				CHANNELS 3 Xrotation Yrotation Zrotation
				JOINT LToe
				{
					OFFSET -0.030464 -0.255699 -0.157787
					CHANNELS 3 Xrotation Yrotation Zrotation
					End Site
					{
						OFFSET -0.006303 -0.052905 -0.005544
					}
				}
			}
		}
	}
}
MOTION
Frames: 4
Frame Time: 0.041667
-0.500595 -0.390235 2.053491 -1.888105 -13.216868 -112.885426 0.014996 0.125872 0.274047 0.000002 0.000000 0.000012 1.682465 0.385840 0.610016 7.269104 3.281872 4.853695 -0.006629 -0.055643 0.657955 -1.947674 6.415907 2.510407 -2.338014 1.743577 0.231147 0.028651 -0.266607 0.613393 0.394588 3.398030 0.344334 45.497891 34.705916 -94.352500 1.651963 3.322272 -36.191796 0.000004 0.000010 0.000003 0.256533 -0.107407 0.015575 -0.000011 0.000007 0.000006 -0.000001 0.000003 -0.000002 0.000002 -0.000005 0.000005 0.268431 -0.041275 0.026195 0.000003 0.000004 0.000006 0.000001 -0.000000 0.000003 -0.000004 -0.000002 0.000002 0.262370 0.027821 0.024228 0.000002 0.000004 0.000002 0.000003 0.000001 0.000003 0.000004 0.000009 -0.000006 0.249618 0.077426 -0.007163 0.000003 0.000006 0.000003 0.000002 0.000004 0.000001 0.000001 0.000001 0.000000 0.050514 -0.043666 -0.045989 0.000011 0.000001 0.000001 0.000010 -0.000009 0.000014 -0.000014 -0.000002 -0.000001 -0.090487 -0.252410 0.613393 -0.175029 -1.452222 -0.154442 16.502142 -57.628580 94.748418 0.715074 -3.414669 33.905189 0.000005 0.000001 0.000001 -0.274588 -0.044128 0.015577 -0.000028 -0.000071 0.000014 -0.000022 0.000054 -0.000015 0.000017 0.000031 -0.000009 -0.270614 0.022948 0.026196 -0.000014 -0.000091 0.000016 0.000012 0.000026 0.000001 0.000006 -0.000004 0.000003 -0.248489 0.088686 0.024227 -0.000012 -0.000087 0.000014 0.000005 0.000025 -0.000005 -0.000012 0.000007 0.000003 -0.224440 0.133906 -0.007165 0.000004 -0.000084 0.000018 0.000017 0.000047 -0.000024 0.000010 0.000019 0.000002 -0.059359 -0.030572 -0.045986 0.000024 -0.000039 -0.000024 0.000029 -0.000039 -0.000011 0.000009 -0.000012 0.000003 -0.292140 0.098717 0.166467 -49.804360 -22.609144 24.122707 63.860261 -6.104895 3.806611 -2.480974 -1.061299 2.102161 -15.159349 1.784506 0.237450 0.306022 -0.022898 0.120578 -50.647608 -12.205272 -3.249491 11.345834 -1.342701 0.133388 1.360277 1.198375 -2.228962 -0.000015 0.000021 0.000001 
-0.563086 -0.450268 2.063545 -3.573067 -12.105767 -119.263914 0.014996 0.125871 0.274046 0.000001 0.000001 0.000006 1.500818 0.233993 0.594857 6.305686 2.245710 3.706345 -0.006629 -0.055643 0.657954 -1.815801 7.073413 2.775060 -2.129811 1.534425 0.199378 0.028651 -0.266607 0.613393 0.414193 3.571362 0.361288 44.630068 33.199644 -91.037495 1.856331 3.519154 -38.913948 0.000001 0.000005 0.000001 0.256534 -0.107407 0.015575 -0.000009 0.000007 0.000008 -0.000001 0.000003 -0.000005 0.000002 -0.000005 0.000007 0.268431 -0.041275 0.026195 0.000005 0.000002 0.000011 -0.000000 0.000001 0.000003 -0.000003 0.000000 0.000004 0.262370 0.027821 0.024228 0.000001 0.000007 -0.000001 0.000004 0.000002 0.000002 0.000003 0.000007 -0.000004 0.249618 0.077426 -0.007164 0.000001 0.000009 0.000007 0.000003 0.000003 0.000007 0.000004 0.000001 -0.000000 0.050514 -0.043666 -0.045989 0.000008 -0.000001 0.000010 0.000009 -0.000011 0.000009 -0.000007 -0.000002 -0.000002 -0.090487 -0.252410 0.613393 -0.156966 -1.303963 -0.138466 19.586056 -50.231202 103.885675 0.315070 -2.509246 24.379954 0.000002 0.000001 -0.000002 -0.274588 -0.044128 0.015577 -0.000028 -0.000068 0.000014 -0.000032 0.000055 -0.000014 0.000020 0.000036 -0.000010 -0.270615 0.022947 0.026196 -0.000013 -0.000091 0.000015 0.000012 0.000026 -0.000000 0.000003 -0.000005 0.000003 -0.248489 0.088686 0.024227 -0.000016 -0.000089 0.000014 0.000001 0.000023 -0.000009 -0.000014 0.000005 0.000004 -0.224440 0.133906 -0.007165 0.000005 -0.000082 0.000023 0.000016 0.000043 -0.000034 0.000003 0.000020 0.000002 -0.059359 -0.030572 -0.045986 0.000023 -0.000034 -0.000028 0.000031 -0.000045 -0.000008 0.000007 -0.000010 0.000001 -0.292349 0.096935 0.164341 -47.636280 -22.525238 28.839586 64.120600 -6.118343 3.834331 -2.439849 -1.881552 3.370402 -16.651313 1.955269 0.286133 0.305979 -0.022673 0.121135 -47.315661 -13.312884 -2.755583 8.618805 -1.022887 0.077085 -0.653463 1.916245 -2.863221 -0.000010 0.000021 0.000005 
-0.644202 -0.513145 2.083140 -5.320585 -11.295433 -123.594022 0.014996 0.125872 0.274046 0.000003 0.000000 0.000008 1.318226 0.081152 0.564277 4.651068 0.917792 2.664612 -0.006629 -0.055643 0.657953 -1.515095 8.179556 3.213904 -1.935581 1.363944 0.174196 0.028651 -0.266607 0.613392 0.429918 3.710710 0.374887 44.362547 29.346184 -88.458074 2.183273 3.796661 -43.011737 0.000005 0.000003 0.000001 0.256534 -0.107407 0.015575 -0.000010 0.000006 0.000004 -0.000006 0.000002 -0.000005 0.000001 -0.000006 0.000007 0.268431 -0.041276 0.026195 0.000004 0.000004 0.000005 -0.000001 -0.000001 -0.000001 -0.000002 -0.000000 0.000001 0.262370 0.027821 0.024228 0.000003 0.000004 0.000001 0.000003 0.000000 0.000002 0.000003 0.000008 0.000002 0.249618 0.077426 -0.007164 0.000004 0.000007 -0.000000 0.000004 0.000000 0.000002 0.000004 0.000001 -0.000000 0.050514 -0.043666 -0.045989 0.000011 0.000002 -0.000003 0.000007 -0.000009 0.000013 -0.000009 0.000001 0.000001 -0.090487 -0.252411 0.613392 -0.137211 -1.141342 -0.120994 16.248701 -36.279260 105.766217 0.114769 -1.781995 17.130659 0.000003 0.000003 0.000001 -0.274588 -0.044128 0.015577 -0.000025 -0.000069 0.000014 -0.000024 0.000054 -0.000016 0.000013 0.000036 -0.000009 -0.270615 0.022947 0.026196 -0.000016 -0.000092 0.000017 0.000015 0.000029 0.000001 0.000002 -0.000004 0.000002 -0.248489 0.088686 0.024227 -0.000012 -0.000087 0.000016 0.000002 0.000024 -0.000008 -0.000016 0.000004 0.000001 -0.224440 0.133906 -0.007165 0.000003 -0.000082 0.000025 0.000019 0.000042 -0.000032 0.000005 0.000020 0.000000 -0.059359 -0.030572 -0.045986 0.000014 -0.000035 -0.000026 0.000030 -0.000041 -0.000011 0.000009 -0.000012 0.000005 -0.292577 0.094976 0.161642 -45.550566 -20.681647 32.675082 63.575503 -6.090044 3.776367 -2.657176 -2.815375 4.849674 -18.040715 2.113074 0.335450 0.305934 -0.022435 0.121751 -44.382982 -13.121531 -1.786507 6.691735 -0.795411 0.046503 -0.466498 2.190018 -3.422987 -0.000013 0.000021 0.000004 
-0.740042 -0.571771 2.107599 -6.638377 -11.000132 -125.716571 0.014996 0.125872 0.274047 0.000002 0.000001 0.000007 1.135161 -0.072306 0.519982 2.297823 -0.992729 1.273188 -0.006629 -0.055643 0.657955 -1.143482 9.688249 3.805180 -1.756352 1.225518 0.154281 0.028651 -0.266608 0.613393 0.442997 3.826789 0.386177 44.543089 23.103689 -86.423032 2.661309 4.136559 -48.604302 0.000001 0.000006 0.000002 0.256534 -0.107407 0.015575 -0.000013 0.000005 0.000008 0.000002 0.000004 -0.000006 -0.000000 -0.000006 0.000007 0.268431 -0.041275 0.026195 0.000003 0.000003 0.000006 -0.000001 -0.000002 0.000002 -0.000003 -0.000003 -0.000000 0.262370 0.027822 0.024228 0.000002 0.000004 -0.000001 0.000004 0.000001 0.000003 -0.000000 0.000008 -0.000001 0.249618 0.077426 -0.007163 -0.000000 0.000009 0.000002 -0.000000 0.000001 0.000003 0.000001 0.000003 0.000004 0.050514 -0.043666 -0.045989 0.000009 -0.000002 0.000006 0.000010 -0.000002 0.000009 -0.000009 -0.000003 -0.000002 -0.090487 -0.252410 0.613393 -0.116001 -0.966246 -0.102254 13.645608 -25.611616 105.422269 0.033164 -1.313951 12.585803 0.000002 0.000004 -0.000002 -0.274588 -0.044128 0.015577 -0.000029 -0.000071 0.000014 -0.000024 0.000055 -0.000015 0.000011 0.000033 -0.000009 -0.270615 0.022947 0.026196 -0.000015 -0.000088 0.000015 0.000008 0.000026 -0.000002 0.000006 -0.000004 0.000005 -0.248489 0.088686 0.024227 -0.000017 -0.000088 0.000014 0.000005 0.000023 -0.000009 -0.000014 0.000004 0.000003 -0.224440 0.133906 -0.007165 0.000005 -0.000081 0.000022 0.000014 0.000046 -0.000024 -0.000001 0.000019 0.000008 -0.059359 -0.030572 -0.045986 0.000020 -0.000037 -0.000027 0.000028 -0.000045 -0.000009 0.000008 -0.000007 -0.000001 -0.292825 0.092845 0.158375 -43.553961 -17.826155 35.107637 62.268485 -6.019950 3.638493 -3.143574 -3.242410 5.554437 -19.339542 2.259443 0.384999 0.305887 -0.022183 0.122426 -41.945285 -11.942399 -0.571989 5.095963 -0.606327 0.026985 1.631218 1.527676 -2.926094 -0.000013 0.000022 -0.000000 
